<?xml version="1.0" encoding="UTF-8"?>
<svg version="1.1" xmlns="http://www.w3.org/2000/svg" width="426" height="363">
<path d="M0 0 C3.01624912 1.60613685 5.43688282 3.75405786 8 6 C9.02739214 6.87127217 10.0561479 7.7409378 11.0859375 8.609375 C14.74823778 11.71171945 18.37482552 14.85443517 22 18 C23.23684916 19.07046273 24.47382791 20.14077575 25.7109375 21.2109375 C30.10954758 25.01813782 34.50247484 28.83187538 38.89550781 32.64550781 C46.15484482 38.94641765 53.42663522 45.23170301 60.73071289 51.48071289 C65.63248299 55.67741028 70.50889683 59.90287162 75.38134766 64.13354492 C79.69704144 67.87819257 84.03148575 71.60018029 88.375 75.3125 C92.96328808 79.23597523 97.51073721 83.19892687 102.01171875 87.22265625 C106.96575545 91.65111735 111.99024967 95.99513105 117.04296875 100.31030273 C117.64753906 100.82665283 118.25210937 101.34300293 118.875 101.875 C119.4834375 102.39457275 120.091875 102.91414551 120.71875 103.44946289 C124.25604759 106.4787947 127.743841 109.55140863 131.1875 112.6875 C134.52227114 115.71712868 137.93287639 118.60608092 141.4375 121.4375 C146.28464323 125.35909254 150.90685186 129.47392755 155.47265625 133.71875 C157.64194715 135.67681164 159.86034996 137.42691969 162.1875 139.1875 C165 142 165 142 165.5625 145.75 C165 149 165 149 163 151 C157.84509401 152.77686974 152.12918383 152.22529652 146.75 152.25 C145.08904297 152.2809375 145.08904297 152.2809375 143.39453125 152.3125 C134.38649912 152.35534439 127.8574815 151.36789141 121.125 144.875 C118.29921998 142.09855839 118.29921998 142.09855839 115 140 C114.98969254 141.00811234 114.97938507 142.01622467 114.96876526 143.05488586 C114.87109555 152.54592528 114.76836755 162.03689819 114.66066074 171.52782917 C114.60544824 176.40744575 114.55203085 181.28706833 114.50268555 186.16674805 C114.45501741 190.87409417 114.4026736 195.581367 114.34705925 200.28862572 C114.32664682 202.08637866 114.3079319 203.88415169 114.29092598 205.68194008 C114.26685742 208.19599303 114.23680614 210.70990748 114.20532227 213.22387695 C114.1995668 213.97050095 114.19381134 214.71712494 114.18788147 215.4863739 C114.14361424 218.58712929 113.98809331 221.03572006 113 224 C108.39725557 223.46115875 105.17705644 222.25085558 101.17578125 219.9375 C100.07492187 219.3098877 98.9740625 218.68227539 97.83984375 218.03564453 C97.26476074 217.70324768 96.68967773 217.37085083 96.09716797 217.02838135 C93.06540992 215.2813878 90.01107226 213.57483696 86.95703125 211.8671875 C86.35210846 211.52863739 85.74718567 211.19008728 85.12393188 210.84127808 C60.5577995 197.13356306 34.32806582 189.77027791 7.11645508 183.27368164 C6.26968704 183.06984863 5.42291901 182.86601562 4.55049133 182.65600586 C2.95131416 182.27221526 1.35084445 181.89375827 -0.25105286 181.52148438 C-3.65154011 180.70584485 -6.0588625 179.96075833 -9 178 C-8.8125 176.1875 -8.8125 176.1875 -8 174 C3.77458421 165.09780039 28.4706371 170.57050571 42.02832031 172.41113281 C56.72677991 174.60689475 71.87521475 177.29173825 86 182 C86.12470516 173.56680721 86.18914956 165.13613112 86.17878246 156.70212746 C86.1758157 152.78470353 86.19282413 148.8695805 86.25708008 144.95263672 C86.31845284 141.16502982 86.32526759 137.38073566 86.29583168 133.59278488 C86.29394259 132.15516223 86.31101024 130.71737357 86.34822655 129.28023148 C86.49571512 123.19235196 86.54384852 117.99163003 82.6600647 112.98138428 C79.88432862 110.42977414 77.05767632 108.20181229 74 106 C72.13870495 104.48789921 70.2835202 102.96821142 68.4375 101.4375 C67.52871094 100.70402344 66.61992187 99.97054687 65.68359375 99.21484375 C63.05291443 97.04367173 60.52057576 94.79758643 58 92.5 C54.58260628 89.38541332 51.0947765 86.4081338 47.5 83.5 C43.03723787 79.88967558 38.77280467 76.11572071 34.53125 72.25 C31.9115519 69.92137947 29.2248469 67.70437053 26.5 65.5 C22.9052235 62.5918662 19.41739372 59.61458668 16 56.5 C9.9686552 51.0090637 3.79496261 45.52997507 -3 41 C-3 40.34 -3 39.68 -3 39 C-6.42756987 38.56387552 -7.69070321 38.76923183 -10.5078125 40.87109375 C-11.80332031 42.14146484 -11.80332031 42.14146484 -13.125 43.4375 C-14.09275897 44.36437936 -15.06287386 45.28880425 -16.03515625 46.2109375 C-16.5264502 46.67983398 -17.01774414 47.14873047 -17.52392578 47.63183594 C-19.77948445 49.72249931 -22.16504377 51.63773372 -24.5625 53.5625 C-29.07032861 57.20343849 -33.3969001 60.99692717 -37.68359375 64.89453125 C-42.13611907 68.94159895 -46.68271055 72.87763771 -51.2578125 76.78515625 C-52.46356676 77.81507479 -53.66929523 78.84502353 -54.875 79.875 C-55.48351807 80.39465332 -56.09203613 80.91430664 -56.71899414 81.44970703 C-60.25623858 84.47892533 -63.74392577 87.55148583 -67.1875 90.6875 C-70.47942205 93.6791816 -73.84591307 96.52524423 -77.3125 99.3125 C-78.16709305 100.02799011 -79.0216861 100.74348022 -79.9021759 101.48065186 C-82.03356131 103.21403041 -84.11197374 104.78757041 -86.35453796 106.34942627 C-91.55986039 110.21323377 -95.96491844 113.91727898 -97.13980103 120.54797363 C-97.66485391 125.98884562 -97.46536296 131.40572406 -97.26953125 136.859375 C-97.24524107 138.85998521 -97.22675663 140.86067351 -97.21379089 142.86138916 C-97.16448804 148.09133821 -97.03711242 153.31648576 -96.89263916 158.54455566 C-96.7589073 163.8936264 -96.70012293 169.24348434 -96.63476562 174.59375 C-96.49593953 185.06459344 -96.27450118 195.53189535 -96 206 C-94.79601562 205.566875 -93.59203125 205.13375 -92.3515625 204.6875 C-90.77610058 204.12483503 -89.20057651 203.56234403 -87.625 203 C-86.8309375 202.71382812 -86.036875 202.42765625 -85.21875 202.1328125 C-84.45820313 201.86210937 -83.69765625 201.59140625 -82.9140625 201.3125 C-81.8614624 200.93544922 -81.8614624 200.93544922 -80.78759766 200.55078125 C-79 200 -79 200 -77 200 C-77.34933594 199.45472656 -77.69867188 198.90945312 -78.05859375 198.34765625 C-81.25558041 193.04953388 -83.67851675 188.30808539 -83 182 C-80.17273152 172.41379281 -73.92658662 167.83943339 -65.59765625 163.0390625 C-39.03275711 148.63632289 -7.62182791 142.93711127 22 139 C23.58207352 138.78416375 25.16410897 138.56804822 26.74609375 138.3515625 C29.17861398 138.02149354 31.61146807 137.70328545 34.046875 137.39453125 C35.92357393 137.14380824 37.79418282 136.83600945 39.6484375 136.453125 C44.71965112 135.76750638 49.76467332 135.89659221 54.875 135.9375 C55.94492187 135.94201172 57.01484375 135.94652344 58.1171875 135.95117188 C60.74484986 135.96290251 63.37239538 135.97931772 66 136 C66.33 136.99 66.66 137.98 67 139 C66.37432129 139.08040527 65.74864258 139.16081055 65.10400391 139.24365234 C62.27644704 139.61200718 59.45078965 139.9933349 56.625 140.375 C55.64015625 140.50132812 54.6553125 140.62765625 53.640625 140.7578125 C52.69960938 140.88671875 51.75859375 141.015625 50.7890625 141.1484375 C49.91975098 141.26364746 49.05043945 141.37885742 48.15478516 141.49755859 C45.80166676 141.84629199 45.80166676 141.84629199 44 144 C41.62890625 144.23828125 41.62890625 144.23828125 38.5625 144.3125 C29.36830653 144.90795271 20.79911231 147.37009307 12 150 C11.12682129 150.26087402 10.25364258 150.52174805 9.35400391 150.79052734 C-17.65050179 158.47548923 -17.65050179 158.47548923 -38 176 C-38.63936996 181.03503846 -38.53196754 183.00699393 -36.125 187.5 C-35.42375 188.325 -34.7225 189.15 -34 190 C-33.34 190 -32.68 190 -32 190 C-31.4225 190.7425 -30.845 191.485 -30.25 192.25 C-28.13695018 195.14588938 -28.13695018 195.14588938 -25 196.8125 C-21.17209622 199.60367984 -19.2772494 202.43713663 -18 207 C-18.52368683 210.89024501 -19.33844053 212.40946751 -22.25805664 215.015625 C-30.5997575 221.05260698 -41.25074038 223.40084538 -51.0625 226 C-52.97168213 226.51590698 -52.97168213 226.51590698 -54.91943359 227.04223633 C-58.61063775 228.03710017 -62.30465549 229.02064269 -66 230 C-66.9502002 230.25313965 -67.90040039 230.5062793 -68.87939453 230.76708984 C-72.77417843 231.80406585 -76.67146046 232.82940035 -80.57421875 233.8359375 C-83.71578739 234.65034012 -86.83770298 235.51832378 -89.95703125 236.4140625 C-110.98078716 242.37752187 -110.98078716 242.37752187 -119.5625 238.3125 C-123.23683163 234.82659563 -125.12756783 232.00306507 -125.39872742 226.90605164 C-125.42504857 225.26656086 -125.43516675 223.62676022 -125.43237305 221.98706055 C-125.44766052 220.63997261 -125.44766052 220.63997261 -125.46325684 219.26567078 C-125.49338031 216.30595658 -125.50265186 213.34656609 -125.51171875 210.38671875 C-125.5285659 208.33119125 -125.54671619 206.27567406 -125.56611633 204.22016907 C-125.61361843 198.81646951 -125.64342655 193.41281171 -125.66955566 188.00897217 C-125.69936002 182.49222567 -125.74589082 176.97562307 -125.79101562 171.45898438 C-125.8770512 160.63939818 -125.94439547 149.81978238 -126 139 C-126.89203125 139.77085937 -127.7840625 140.54171875 -128.703125 141.3359375 C-129.88523286 142.34917281 -131.06753475 143.3621818 -132.25 144.375 C-132.83652344 144.88289062 -133.42304688 145.39078125 -134.02734375 145.9140625 C-141.24365612 152.07630677 -146.44708407 152.43058427 -155.875 152.75 C-157.04675781 152.80542969 -158.21851563 152.86085937 -159.42578125 152.91796875 C-160.56144531 152.96050781 -161.69710937 153.00304687 -162.8671875 153.046875 C-164.41575439 153.10633301 -164.41575439 153.10633301 -165.99560547 153.16699219 C-169.35646158 152.98018692 -171.91210018 152.3341487 -175 151 C-177 148 -177 148 -176.9375 145.125 C-175.77652648 141.25508827 -174.08147221 139.5553672 -171 137 C-170.34 137 -169.68 137 -169 137 C-169 136.34 -169 135.68 -169 135 C-167.46804728 133.62787699 -165.87078919 132.3284554 -164.25 131.0625 C-160.01415769 127.67925672 -155.96140526 124.19903909 -152 120.5 C-147.3908082 116.20958029 -142.62209137 112.19582964 -137.71484375 108.24609375 C-134.89326505 105.9116941 -132.19409288 103.48009402 -129.5 101 C-125.94329756 97.72581577 -122.32838189 94.59357567 -118.5625 91.5625 C-114.0260327 87.90364231 -109.741339 84.05131037 -105.47851562 80.08398438 C-102.26718772 77.1129881 -98.97381211 74.30046168 -95.5625 71.5625 C-90.14236109 67.19975813 -85.07430728 62.51823304 -79.98828125 57.77734375 C-73.92941767 52.12982625 -67.60009122 46.80667272 -61.26953125 41.46850586 C-56.98219513 37.84739534 -52.7349878 34.18212444 -48.5 30.5 C-42.77420913 25.52372724 -37.01319045 20.59316552 -31.20703125 15.7109375 C-28.95858583 13.81816661 -26.73047398 11.90404068 -24.51171875 9.9765625 C-23.93437988 9.47850098 -23.35704102 8.98043945 -22.76220703 8.46728516 C-21.66645808 7.52137145 -20.57465998 6.57085205 -19.48779297 5.61474609 C-13.18944389 0.2013729 -8.09736409 -2.42502814 0 0 Z " fill="#00614C" transform="translate(217,53)"/>
<path d="M0 0 C7.54719472 0.03494072 11.41929937 2.10988774 17 7 C18.02739214 7.87127217 19.0561479 8.7409378 20.0859375 9.609375 C23.74823778 12.71171945 27.37482552 15.85443517 31 19 C32.23684916 20.07046273 33.47382791 21.14077575 34.7109375 22.2109375 C39.10954758 26.01813782 43.50247484 29.83187538 47.89550781 33.64550781 C55.15484482 39.94641765 62.42663522 46.23170301 69.73071289 52.48071289 C74.63248299 56.67741028 79.50889683 60.90287162 84.38134766 65.13354492 C88.69704144 68.87819257 93.03148575 72.60018029 97.375 76.3125 C101.96328808 80.23597523 106.51073721 84.19892687 111.01171875 88.22265625 C115.96575545 92.65111735 120.99024967 96.99513105 126.04296875 101.31030273 C126.64753906 101.82665283 127.25210938 102.34300293 127.875 102.875 C128.4834375 103.39457275 129.091875 103.91414551 129.71875 104.44946289 C133.25604759 107.4787947 136.743841 110.55140863 140.1875 113.6875 C143.52227114 116.71712868 146.93287639 119.60608092 150.4375 122.4375 C155.28464323 126.35909254 159.90685186 130.47392755 164.47265625 134.71875 C166.64194715 136.67681164 168.86034996 138.42691969 171.1875 140.1875 C174 143 174 143 174.5625 146.75 C174 150 174 150 172 152 C166.84509401 153.77686974 161.12918383 153.22529652 155.75 153.25 C154.08904297 153.2809375 154.08904297 153.2809375 152.39453125 153.3125 C143.38649912 153.35534439 136.8574815 152.36789141 130.125 145.875 C127.29921998 143.09855839 127.29921998 143.09855839 124 141 C123.98969254 142.00811234 123.97938507 143.01622467 123.96876526 144.05488586 C123.87109555 153.54592528 123.76836755 163.03689819 123.66066074 172.52782917 C123.60544824 177.40744575 123.55203085 182.28706833 123.50268555 187.16674805 C123.45501741 191.87409417 123.4026736 196.581367 123.34705925 201.28862572 C123.32664682 203.08637866 123.3079319 204.88415169 123.29092598 206.68194008 C123.26685742 209.19599303 123.23680614 211.70990748 123.20532227 214.22387695 C123.1995668 214.97050095 123.19381134 215.71712494 123.18788147 216.4863739 C123.14361424 219.58712929 122.98809331 222.03572006 122 225 C117.39725557 224.46115875 114.17705644 223.25085558 110.17578125 220.9375 C109.07492187 220.3098877 107.9740625 219.68227539 106.83984375 219.03564453 C106.26476074 218.70324768 105.68967773 218.37085083 105.09716797 218.02838135 C102.06540992 216.2813878 99.01107226 214.57483696 95.95703125 212.8671875 C95.35210846 212.52863739 94.74718567 212.19008728 94.12393188 211.84127808 C69.59839339 198.15621414 43.16531442 190.62229351 16 184 C16 183.34 16 182.68 16 182 C21.82828941 182.60862954 27.28886501 183.70924918 32.9375 185.25 C33.76233887 185.47252441 34.58717773 185.69504883 35.43701172 185.92431641 C37.95990235 186.60948039 40.47994191 187.30450189 43 188 C43.74556152 188.20141602 44.49112305 188.40283203 45.25927734 188.61035156 C72.10102867 195.88391367 95.98663701 209.27807829 120 223 C120 194.29 120 165.58 120 136 C126.8 138.26666667 126.8 138.26666667 129.875 141 C130.76832031 141.7734375 130.76832031 141.7734375 131.6796875 142.5625 C133 144 133 144 133 146 C133.721875 146.28875 134.44375 146.5775 135.1875 146.875 C136.91059552 147.56423821 138.62219521 148.28440016 140.31005859 149.0559082 C143.3245448 150.11390586 145.66313586 150.24354238 148.8515625 150.23046875 C149.94984375 150.22853516 151.048125 150.22660156 152.1796875 150.22460938 C153.31664062 150.21236328 154.45359375 150.20011719 155.625 150.1875 C157.34203125 150.1865332 157.34203125 150.1865332 159.09375 150.18554688 C165.14460972 150.25052783 165.14460972 150.25052783 171 149 C171.44645048 146.72267099 171.44645048 146.72267099 171 144 C169.2700307 142.00736521 167.68034167 140.43499202 165.6875 138.75 C165.14279053 138.27038818 164.59808105 137.79077637 164.03686523 137.29663086 C159.73717962 133.54008965 155.29615844 129.95691017 150.84765625 126.37890625 C147.62737145 123.68870948 144.56181055 120.86740988 141.5 118 C136.69456083 113.50038725 131.74838757 109.26896541 126.61328125 105.14453125 C123.13855327 102.29307286 119.84024792 99.26614732 116.51953125 96.23828125 C113.96795083 93.97152842 111.34828468 91.82459913 108.6875 89.6875 C103.8749471 85.79808842 99.3540148 81.6725675 94.84106445 77.4465332 C90.60505142 73.50209561 86.19365192 69.83519299 81.6796875 66.2109375 C78.86746685 63.8906505 76.18202737 61.46928866 73.5 59 C69.92207537 55.70668301 66.28460334 52.55348679 62.5 49.5 C58.71539666 46.44651321 55.07792463 43.29331699 51.5 40 C47.03416274 35.88990511 42.41896833 32.03509412 37.6953125 28.2265625 C34.14461351 25.29337638 30.76781666 22.1868058 27.37109375 19.078125 C24.51493503 16.57486892 21.51711031 14.35475438 18.3984375 12.19140625 C17.93695313 11.79824219 17.47546875 11.40507813 17 11 C17 10.34 17 9.68 17 9 C16.484375 8.7525 15.96875 8.505 15.4375 8.25 C13.4531691 7.23239441 11.52785489 6.10035577 9.625 4.9375 C6.46522605 3.10169181 3.66706956 2.35776288 0 2 C0 1.34 0 0.68 0 0 Z " fill="#01362B" transform="translate(208,52)"/>
<path d="M0 0 C0.99 0.33 1.98 0.66 3 1 C1.4840625 2.0828125 1.4840625 2.0828125 -0.0625 3.1875 C-8.70958503 9.66512064 -16.71387171 17.0392038 -24.75 24.25 C-27.88496061 27.0562007 -31.10306637 29.72980295 -34.375 32.375 C-39.16834875 36.26041639 -43.71550307 40.35725034 -48.25390625 44.53515625 C-50.91875166 46.92707297 -53.64831825 49.19254884 -56.4375 51.4375 C-60.96944116 55.09270716 -65.25148039 58.93966812 -69.50830078 62.9050293 C-73.69378102 66.77989498 -78.08284628 70.35881089 -82.52734375 73.93359375 C-85.3627463 76.30314817 -87.93399417 78.84215826 -90.50390625 81.4921875 C-92.53119768 83.5353585 -94.65892985 85.32780704 -97 87 C-97.66 87 -98.32 87 -99 87 C-99 87.66 -99 88.32 -99 89 C-100.55240341 90.39325954 -102.17029985 91.71380128 -103.8125 93 C-107.83947294 96.21745342 -111.71057012 99.50038222 -115.5 103 C-119.05670244 106.27418423 -122.67161811 109.40642433 -126.4375 112.4375 C-131.55961584 116.57177921 -136.39014502 120.95834255 -141.21484375 125.4296875 C-143.53392932 127.56988148 -145.8727064 129.67510187 -148.25 131.75 C-148.86488281 132.28882813 -149.47976562 132.82765625 -150.11328125 133.3828125 C-151.46818646 134.54415982 -152.84318035 135.68222298 -154.23046875 136.8046875 C-155.32294922 137.70574219 -155.32294922 137.70574219 -156.4375 138.625 C-157.09621094 139.15351563 -157.75492188 139.68203125 -158.43359375 140.2265625 C-160.38698137 142.43812853 -160.73425167 144.09126369 -161 147 C-158.39078867 149.60921133 -151.16953841 148.27394479 -147.43676758 148.29516602 C-145.33802644 148.3122917 -143.24089716 148.35614524 -141.14257812 148.40039062 C-139.79949074 148.41052536 -138.45638995 148.41903902 -137.11328125 148.42578125 C-135.89423096 148.44036377 -134.67518066 148.45494629 -133.41918945 148.4699707 C-129.37101646 147.91354564 -127.25403824 146.39570007 -124 144 C-123.34 144 -122.68 144 -122 144 C-122 144.66 -122 145.32 -122 146 C-127.99640389 151.84530087 -135.2021425 151.83501084 -143.125 151.9375 C-144.85556641 152.0003418 -144.85556641 152.0003418 -146.62109375 152.06445312 C-152.21620316 152.20965493 -156.77035113 152.23975287 -162 150 C-164 147 -164 147 -163.9375 144.125 C-162.77652648 140.25508827 -161.08147221 138.5553672 -158 136 C-157.34 136 -156.68 136 -156 136 C-156 135.34 -156 134.68 -156 134 C-154.46804728 132.62787699 -152.87078919 131.3284554 -151.25 130.0625 C-147.01415769 126.67925672 -142.96140526 123.19903909 -139 119.5 C-134.3908082 115.20958029 -129.62209137 111.19582964 -124.71484375 107.24609375 C-121.89326505 104.9116941 -119.19409288 102.48009402 -116.5 100 C-112.94329756 96.72581577 -109.32838189 93.59357567 -105.5625 90.5625 C-101.0260327 86.90364231 -96.741339 83.05131037 -92.47851562 79.08398438 C-89.26718772 76.1129881 -85.97381211 73.30046168 -82.5625 70.5625 C-77.14236109 66.19975813 -72.07430728 61.51823304 -66.98828125 56.77734375 C-60.92941767 51.12982625 -54.60009122 45.80667272 -48.26953125 40.46850586 C-43.98219513 36.84739534 -39.7349878 33.18212444 -35.5 29.5 C-29.25813938 24.07521211 -22.96626786 18.71398695 -16.64111328 13.38671875 C-14.87989179 11.89851017 -13.12500264 10.40306823 -11.37109375 8.90625 C-10.77570801 8.39916504 -10.18032227 7.89208008 -9.56689453 7.36962891 C-8.4220284 6.39427816 -7.27841361 5.41745614 -6.13623047 4.43896484 C-2.2246085 1.11230425 -2.2246085 1.11230425 0 0 Z " fill="#01372B" transform="translate(204,54)"/>
<path d="M0 0 C0.33 0 0.66 0 1 0 C1.01030746 1.17097733 1.02061493 2.34195465 1.03123474 3.54841614 C1.128882 14.56992713 1.23160784 25.59138057 1.33933926 36.61279774 C1.39456427 42.27936151 1.44798367 47.94593044 1.49731445 53.61254883 C1.54496412 59.07849879 1.59730726 64.5443853 1.65294075 70.01025963 C1.67336155 72.09828809 1.69207509 74.18633396 1.70907402 76.27439308 C1.733124 79.19316539 1.76317792 82.11181752 1.79467773 85.03051758 C1.8004332 85.89870117 1.80618866 86.76688477 1.81211853 87.66137695 C1.81158598 93.93089609 1.81158598 93.93089609 4.875 99.1875 C14.13146885 104.55625193 26.9907589 99.34376713 36.625 96.8125 C38.16507704 96.4200937 39.70544101 96.02881175 41.24609375 95.63867188 C50.27760919 93.3328052 59.22907177 90.80061877 68.16064453 88.13598633 C71.43201831 87.16178195 74.71431656 86.23690379 78.0078125 85.33984375 C78.86890625 85.10330078 79.73 84.86675781 80.6171875 84.62304688 C82.3264141 84.15580502 84.03744658 83.69513138 85.75 83.24023438 C91.05562622 81.76868911 95.29196367 79.8431648 100 77 C100.66 77 101.32 77 102 77 C102.64373523 73.37167415 102.94658628 71.48957752 102 68 C98.35344408 63.72472754 94.06304401 59.53152201 89 57 C89 56.34 89 55.68 89 55 C87.515 54.505 87.515 54.505 86 54 C83.30425411 50.33079032 81.60478579 47.62066308 81.875 43 C83.12128921 36.88612842 86.81763952 33.55574212 91.76171875 30.03125 C97.65931502 26.25910971 103.74833086 23.00888462 110.0625 20 C110.69341553 19.69707031 111.32433105 19.39414063 111.97436523 19.08203125 C115.30383302 17.55219086 117.25324235 17 121 17 C121 17.66 121 18.32 121 19 C120.07960938 19.3403125 119.15921875 19.680625 118.2109375 20.03125 C99.46292145 26.59088831 99.46292145 26.59088831 86 40 C84.93349016 44.4122544 85.72492041 47.4865181 87.875 51.5 C88.57625 52.325 89.2775 53.15 90 54 C90.66 54 91.32 54 92 54 C92.5775 54.7425 93.155 55.485 93.75 56.25 C95.86304982 59.14588938 95.86304982 59.14588938 99 60.8125 C102.82790378 63.60367984 104.7227506 66.43713663 106 71 C105.47631317 74.89024501 104.66155947 76.40946751 101.74194336 79.015625 C93.4002425 85.05260698 82.74925962 87.40084538 72.9375 90 C71.66471191 90.34393799 70.39192383 90.68787598 69.08056641 91.04223633 C65.38936225 92.03710017 61.69534451 93.02064269 58 94 C56.57469971 94.37970947 56.57469971 94.37970947 55.12060547 94.76708984 C51.22582157 95.80406585 47.32853954 96.82940035 43.42578125 97.8359375 C40.28421261 98.65034012 37.16229702 99.51832378 34.04296875 100.4140625 C13.3838075 106.27410336 13.3838075 106.27410336 6.01171875 103.16015625 C3.72496867 101.71388234 1.90794751 99.90794751 0 98 C-0.18848472 94.89582582 -0.25160454 91.88146099 -0.22705078 88.77685547 C-0.22734283 87.8207135 -0.22763489 86.86457153 -0.22793579 85.87945557 C-0.22653876 82.70860828 -0.21095999 79.53799391 -0.1953125 76.3671875 C-0.1915837 74.17286304 -0.1887361 71.97853692 -0.18673706 69.78421021 C-0.17909015 64.00062486 -0.15943259 58.21713951 -0.1373291 52.43359375 C-0.11689343 46.53517001 -0.10774023 40.63673016 -0.09765625 34.73828125 C-0.07618769 23.15881016 -0.04203902 11.57941339 0 0 Z " fill="#03281F" transform="translate(93,189)"/>
<path d="M0 0 C1.98 0.66 3.96 1.32 6 2 C6 2.99 6 3.98 6 5 C5.34 5 4.68 5 4 5 C3.98969254 6.00811234 3.97938507 7.01622467 3.96876526 8.05488586 C3.87109555 17.54592528 3.76836755 27.03689819 3.66066074 36.52782917 C3.60544824 41.40744575 3.55203085 46.28706833 3.50268555 51.16674805 C3.45501741 55.87409417 3.4026736 60.581367 3.34705925 65.28862572 C3.32664682 67.08637866 3.3079319 68.88415169 3.29092598 70.68194008 C3.26685742 73.19599303 3.23680614 75.70990748 3.20532227 78.22387695 C3.1995668 78.97050095 3.19381134 79.71712494 3.18788147 80.4863739 C3.14361424 83.58712929 2.98809331 86.03572006 2 89 C-2.60274443 88.46115875 -5.82294356 87.25085558 -9.82421875 84.9375 C-11.47550781 83.99608154 -11.47550781 83.99608154 -13.16015625 83.03564453 C-13.73523926 82.70324768 -14.31032227 82.37085083 -14.90283203 82.02838135 C-17.93459008 80.2813878 -20.98892774 78.57483696 -24.04296875 76.8671875 C-24.64789154 76.52863739 -25.25281433 76.19008728 -25.87606812 75.84127808 C-50.40160661 62.15621414 -76.83468558 54.62229351 -104 48 C-104 47.34 -104 46.68 -104 46 C-98.17171059 46.60862954 -92.71113499 47.70924918 -87.0625 49.25 C-86.23766113 49.47252441 -85.41282227 49.69504883 -84.56298828 49.92431641 C-82.04009765 50.60948039 -79.52005809 51.30450189 -77 52 C-76.25443848 52.20141602 -75.50887695 52.40283203 -74.74072266 52.61035156 C-47.89897133 59.88391367 -24.01336299 73.27807829 0 87 C0 58.29 0 29.58 0 0 Z " fill="#044031" transform="translate(328,188)"/>
<path d="M0 0 C2 0 2 0 4.21875 2.1484375 C5.1365625 3.08945313 6.054375 4.03046875 7 5 C9.1283273 6.9201813 11.31345712 8.77159795 13.5 10.625 C14.10948486 11.14425049 14.71896973 11.66350098 15.34692383 12.19848633 C17.22949154 13.8011111 19.11467767 15.4006174 21 17 C22.13942393 17.96993343 23.27875055 18.93998119 24.41796875 19.91015625 C29.4441349 24.18306803 34.49464315 28.41455191 39.625 32.5625 C44.32855351 36.38669351 48.790898 40.4268493 53.25 44.53125 C55.93737634 46.94378104 58.68965444 49.2325621 61.5 51.5 C66.24229624 55.32617083 70.72954369 59.36985363 75.2109375 63.49609375 C78.9967187 66.89481329 82.92135722 70.0924253 86.8828125 73.28515625 C89 75 89 75 90 76 C90.09425595 78.14743549 90.11742648 80.29801026 90.11352539 82.44750977 C90.11367142 83.12065216 90.11381744 83.79379456 90.1139679 84.48733521 C90.11326878 86.72205784 90.10547652 88.9566981 90.09765625 91.19140625 C90.09579206 92.73697362 90.09436816 94.28254157 90.09336853 95.82810974 C90.0895434 99.90357077 90.07971317 103.97899637 90.06866455 108.05444336 C90.05845032 112.21011882 90.05387089 116.36579999 90.04882812 120.52148438 C90.03809089 128.68100587 90.02101454 136.84049853 90 145 C88.56818631 144.85147239 87.13668567 144.69992518 85.70532227 144.54711914 C84.50952293 144.42102013 84.50952293 144.42102013 83.28956604 144.29237366 C80.41853719 143.9257482 77.71440929 143.24596726 74.9375 142.4375 C73.52791016 142.03337891 73.52791016 142.03337891 72.08984375 141.62109375 C71.05537109 141.31365234 71.05537109 141.31365234 70 141 C70 140.67 70 140.34 70 140 C74.85340204 139.73036655 78.63742094 140.0421703 83.2890625 141.51171875 C84.1754541 141.78846436 85.0618457 142.06520996 85.97509766 142.3503418 C86.64331543 142.564729 87.3115332 142.77911621 88 143 C88.12470516 134.56680721 88.18914956 126.13613112 88.17878246 117.70212746 C88.1758157 113.78470353 88.19282413 109.8695805 88.25708008 105.95263672 C88.31845284 102.16502982 88.32526759 98.38073566 88.29583168 94.59278488 C88.29394259 93.15516223 88.31101024 91.71737357 88.34822655 90.28023148 C88.49571512 84.19235196 88.54384852 78.99163003 84.6600647 73.98138428 C81.88432862 71.42977414 79.05767632 69.20181229 76 67 C74.13870495 65.48789921 72.2835202 63.96821142 70.4375 62.4375 C69.52871094 61.70402344 68.61992187 60.97054687 67.68359375 60.21484375 C65.05291443 58.04367173 62.52057576 55.79758643 60 53.5 C56.58260628 50.38541332 53.0947765 47.4081338 49.5 44.5 C45.03723787 40.88967558 40.77280467 37.11572071 36.53125 33.25 C33.9115519 30.92137947 31.2248469 28.70437053 28.5 26.5 C24.04649157 22.89716172 19.78766024 19.13582372 15.5625 15.26953125 C11.91454644 12.03864555 8.09193218 9.03902098 4.25 6.04296875 C2.09888173 4.08978324 1.05680832 2.67204376 0 0 Z " fill="#034537" transform="translate(215,92)"/>
<path d="M0 0 C-1.57847573 4.30771119 -4.8853225 6.73081356 -8.3125 9.5625 C-9.24703003 10.34923096 -9.24703003 10.34923096 -10.20043945 11.15185547 C-12.1287012 12.77388538 -14.06394721 14.38728288 -16 16 C-18.23243235 17.87113898 -20.46091014 19.74691401 -22.6875 21.625 C-23.49030396 22.30067017 -23.49030396 22.30067017 -24.30932617 22.98999023 C-27.82052287 25.95927279 -31.2388719 29.01264396 -34.625 32.125 C-38.14062832 35.35571488 -41.71909931 38.44256497 -45.4375 41.4375 C-49.9739673 45.09635769 -54.258661 48.94868963 -58.52148438 52.91601562 C-62.57578609 56.66689864 -66.8100435 60.13268794 -71.1171875 63.5859375 C-75.14827614 66.96156457 -78.96656095 70.55330192 -82.76147461 74.19116211 C-86.78849166 78 -86.78849166 78 -89 78 C-89 108.36 -89 138.72 -89 170 C-89.33 170 -89.66 170 -90 170 C-90.30219716 158.08226765 -90.53268595 146.16545699 -90.67355824 134.24466324 C-90.74119886 128.70811195 -90.83281267 123.17419512 -90.98071289 117.63916016 C-91.12274858 112.28966476 -91.19985035 106.94268995 -91.23340416 101.59145355 C-91.25728931 99.55789263 -91.30393753 97.52445851 -91.37449074 95.49198151 C-91.93128551 78.77576537 -91.93128551 78.77576537 -87.21713257 73.16247559 C-84.57429126 70.51569277 -81.72866375 68.27111061 -78.65198326 66.15154266 C-76.10413087 64.37551939 -73.75600747 62.36610441 -71.375 60.375 C-70.04662109 59.30765625 -70.04662109 59.30765625 -68.69140625 58.21875 C-64.85166921 55.05333543 -61.2035599 51.69326909 -57.5390625 48.328125 C-53.02743881 44.19131313 -48.40014509 40.19389177 -43.74609375 36.21875 C-37.50159214 30.88449572 -31.30177136 25.51864293 -25.21484375 20.00390625 C-21.84793769 16.95765791 -18.43690456 13.96690052 -15 11 C-14.47905762 10.54737793 -13.95811523 10.09475586 -13.42138672 9.62841797 C-11.6604969 8.10106004 -9.89338756 6.58116731 -8.125 5.0625 C-7.55289795 4.56508301 -6.9807959 4.06766602 -6.39135742 3.55517578 C-2.22830507 0 -2.22830507 0 0 0 Z " fill="#012D22" transform="translate(208,91)"/>
<path d="M0 0 C0 0.66 0 1.32 0 2 C-0.92039063 2.3403125 -1.84078125 2.680625 -2.7890625 3.03125 C-21.53707855 9.59088831 -21.53707855 9.59088831 -35 23 C-36.06650984 27.4122544 -35.27507959 30.4865181 -33.125 34.5 C-32.42375 35.325 -31.7225 36.15 -31 37 C-30.34 37 -29.68 37 -29 37 C-28.4225 37.7425 -27.845 38.485 -27.25 39.25 C-25.13695018 42.14588938 -25.13695018 42.14588938 -22 43.8125 C-18.17209622 46.60367984 -16.2772494 49.43713663 -15 54 C-15.51066136 57.79348437 -16.41267464 59.39487691 -19.0625 62.125 C-24.73547292 65.74604654 -30.09017382 68.70870012 -37 68 C-34.04596461 66.03064308 -31.27704947 64.78285732 -28 63.4375 C-26.948125 63.00308594 -25.89625 62.56867188 -24.8125 62.12109375 C-22.89662468 61.35740456 -20.95663474 60.65221158 -19 60 C-18.35626477 56.37167415 -18.05341372 54.48957752 -19 51 C-22.64655592 46.72472754 -26.93695599 42.53152201 -32 40 C-32 39.34 -32 38.68 -32 38 C-32.99 37.67 -33.98 37.34 -35 37 C-37.69574589 33.33079032 -39.39521421 30.62066308 -39.125 26 C-37.87871079 19.88612842 -34.18236048 16.55574212 -29.23828125 13.03125 C-23.34068498 9.25910971 -17.25166914 6.00888462 -10.9375 3 C-10.30658447 2.69707031 -9.67566895 2.39414063 -9.02563477 2.08203125 C-5.69616698 0.55219086 -3.74675765 0 0 0 Z " fill="#02372B" transform="translate(214,206)"/>
<path d="M0 0 C0.99 0.66 1.98 1.32 3 2 C1.99646484 2.31130859 1.99646484 2.31130859 0.97265625 2.62890625 C-24.12350646 10.53384423 -24.12350646 10.53384423 -43 28 C-44.01429732 34.49540402 -43.71748913 39.72637228 -40 45.25 C-39.02660205 46.5208251 -38.03566924 47.77938982 -37 49 C-44.12138499 52.98608496 -51.02443261 55.31444194 -59 57 C-56.53397948 53.30096923 -54.02621414 52.650529 -50 51.3125 C-49.35804688 51.08755859 -48.71609375 50.86261719 -48.0546875 50.63085938 C-43.31577698 49 -43.31577698 49 -41 49 C-41.34933594 48.45472656 -41.69867188 47.90945312 -42.05859375 47.34765625 C-45.25558041 42.04953388 -47.67851675 37.30808539 -47 31 C-44.18215349 21.44573919 -37.84781385 16.64963773 -29.45703125 12.00390625 C-22.41851774 8.25805751 -15.170442 5.12083471 -7.6875 2.375 C-6.96433594 2.10292725 -6.24117187 1.83085449 -5.49609375 1.55053711 C-3.44921875 0.8359375 -3.44921875 0.8359375 0 0 Z " fill="#013A2D" transform="translate(181,204)"/>
<path d="M0 0 C1.25167969 0.00902344 2.50335938 0.01804688 3.79296875 0.02734375 C6.8621801 0.05077284 9.93098756 0.08357853 13 0.125 C13.495 1.61 13.495 1.61 14 3.125 C13.37432129 3.20540527 12.74864258 3.28581055 12.10400391 3.36865234 C9.27644704 3.73700718 6.45078965 4.1183349 3.625 4.5 C2.64015625 4.62632812 1.6553125 4.75265625 0.640625 4.8828125 C-0.30039062 5.01171875 -1.24140625 5.140625 -2.2109375 5.2734375 C-3.08024902 5.38864746 -3.94956055 5.50385742 -4.84521484 5.62255859 C-7.19833324 5.97129199 -7.19833324 5.97129199 -9 8.125 C-12.2578125 8.3203125 -12.2578125 8.3203125 -16.125 8.25 C-18.04699219 8.22292969 -18.04699219 8.22292969 -20.0078125 8.1953125 C-21.48894531 8.16050781 -21.48894531 8.16050781 -23 8.125 C-23 7.465 -23 6.805 -23 6.125 C-21.02 5.795 -19.04 5.465 -17 5.125 C-18.65 4.795 -20.3 4.465 -22 4.125 C-22 3.465 -22 2.805 -22 2.125 C-14.65226277 -0.20790657 -7.66160781 -0.10517519 0 0 Z " fill="#013A2D" transform="translate(270,188.875)"/>
<path d="M0 0 C0.99 0 1.98 0 3 0 C3 31.35 3 62.7 3 95 C2.67 95 2.34 95 2 95 C1.67 64.64 1.34 34.28 1 3 C-1.64 5.31 -4.28 7.62 -7 10 C-7.66 9.34 -8.32 8.68 -9 8 C-7.8803014 6.99406757 -6.7540588 5.9954151 -5.625 5 C-4.68527344 4.1646875 -4.68527344 4.1646875 -3.7265625 3.3125 C-2 2 -2 2 0 2 C0 1.34 0 0.68 0 0 Z " fill="#065B4A" transform="translate(90,189)"/>
<path d="M0 0 C0.33 0 0.66 0 1 0 C1 22.77 1 45.54 1 69 C-9.125 67.875 -9.125 67.875 -14.0625 66.4375 C-15.00222656 66.16808594 -15.94195312 65.89867187 -16.91015625 65.62109375 C-17.59980469 65.41613281 -18.28945313 65.21117187 -19 65 C-19 64.67 -19 64.34 -19 64 C-11.17840181 63.4096907 -8.2165863 65.01215044 0 68 C0 45.56 0 23.12 0 0 Z " fill="#031B13" transform="translate(304,168)"/>
<path d="M0 0 C2 0 2 0 4.21875 2.1484375 C5.1365625 3.08945313 6.054375 4.03046875 7 5 C9.1283277 6.92018167 11.31349296 8.77155534 13.5 10.625 C14.40878906 11.39952515 14.40878906 11.39952515 15.3359375 12.18969727 C17.22186129 13.79561811 19.11057399 15.39820186 21 17 C21.60070312 17.50998535 22.20140625 18.0199707 22.8203125 18.54541016 C28.52607897 23.38871357 34.24623392 28.21375708 40 33 C39.67 33.99 39.34 34.98 39 36 C38.26136719 35.31035156 37.52273437 34.62070313 36.76171875 33.91015625 C30.99652259 28.558198 25.14007433 23.41536754 19.01953125 18.46875 C15.26517462 15.39921133 11.56046775 12.27674045 7.875 9.125 C7.21072998 8.56506348 6.54645996 8.00512695 5.86206055 7.42822266 C5.24500244 6.8976123 4.62794434 6.36700195 3.9921875 5.8203125 C3.43901855 5.34867676 2.88584961 4.87704102 2.31591797 4.39111328 C1 3 1 3 0 0 Z " fill="#013A2D" transform="translate(215,92)"/>
<path d="M0 0 C12.10177069 0.4711755 24.00711457 1.27476648 36 3 C36 3.66 36 4.32 36 5 C23.93093265 4.45789059 11.99264741 3.46009773 0 2 C0 1.34 0 0.68 0 0 Z " fill="#013327" transform="translate(227,223)"/>
<path d="M0 0 C-1 2 -1 2 -3.02197266 2.76196289 C-3.8938623 2.9964917 -4.76575195 3.23102051 -5.6640625 3.47265625 C-6.62183594 3.73240234 -7.57960937 3.99214844 -8.56640625 4.25976562 C-9.57574219 4.52466797 -10.58507812 4.78957031 -11.625 5.0625 C-12.61113281 5.33126953 -13.59726563 5.60003906 -14.61328125 5.87695312 C-19.7334513 7.24757274 -24.73191043 8.40235959 -30 9 C-29 7 -29 7 -27.22167969 6.23803711 C-26.46274414 6.0035083 -25.70380859 5.76897949 -24.921875 5.52734375 C-24.09042969 5.26759766 -23.25898438 5.00785156 -22.40234375 4.74023438 C-21.08943359 4.34288086 -21.08943359 4.34288086 -19.75 3.9375 C-18.89019531 3.66873047 -18.03039062 3.39996094 -17.14453125 3.12304688 C-11.3740609 1.34033608 -6.088088 -0.17394537 0 0 Z " fill="#01382B" transform="translate(245,197)"/>
<path d="M0 0 C0 0.33 0 0.66 0 1 C-0.68102783 1.08564209 -1.36205566 1.17128418 -2.0637207 1.25952148 C-5.14705243 1.64904757 -8.22977286 2.04321902 -11.3125 2.4375 C-12.38435547 2.57220703 -13.45621094 2.70691406 -14.56054688 2.84570312 C-15.58857422 2.97783203 -16.61660156 3.10996094 -17.67578125 3.24609375 C-18.62364502 3.36654053 -19.57150879 3.4869873 -20.5480957 3.61108398 C-23.12801191 3.95172452 -23.12801191 3.95172452 -26 5 C-27.39439664 5.06665376 -28.79169875 5.08538199 -30.1875 5.0625 C-32.0746875 5.0315625 -32.0746875 5.0315625 -34 5 C-34 4.34 -34 3.68 -34 3 C-22.5311063 0.76993734 -11.68459143 -0.42981467 0 0 Z " fill="#00372B" transform="translate(247,193)"/>
<path d="M0 0 C-3.33155335 3.33155335 -7.94143359 3.64030736 -12.4375 4.6875 C-13.88866211 5.04424805 -13.88866211 5.04424805 -15.36914062 5.40820312 C-16.29791016 5.62798828 -17.22667969 5.84777344 -18.18359375 6.07421875 C-19.03493896 6.27619873 -19.88628418 6.47817871 -20.76342773 6.6862793 C-23 7 -23 7 -26 6 C-18.39373474 1.43624085 -8.82342112 -0.61558752 0 0 Z " fill="#003829" transform="translate(212,198)"/>
<path d="M0 0 C1.25167969 0.00902344 2.50335938 0.01804688 3.79296875 0.02734375 C6.8621801 0.05077284 9.93098756 0.08357853 13 0.125 C13.495 1.61 13.495 1.61 14 3.125 C2.12 3.125 -9.76 3.125 -22 3.125 C-22 2.795 -22 2.465 -22 2.125 C-14.65226277 -0.20790657 -7.66160781 -0.10517519 0 0 Z " fill="#045C4E" transform="translate(270,188.875)"/>
<path d="M0 0 C-4.05632115 2.12635671 -8.18516109 3.39092113 -12.5625 4.6875 C-13.33013672 4.92533203 -14.09777344 5.16316406 -14.88867188 5.40820312 C-20.64308036 7.11897321 -20.64308036 7.11897321 -24 6 C-23.34 6 -22.68 6 -22 6 C-22 5.34 -22 4.68 -22 4 C-20.94039062 3.72285156 -19.88078125 3.44570313 -18.7890625 3.16015625 C-17.40101131 2.794386 -16.01299213 2.42849428 -14.625 2.0625 C-13.92632812 1.88009766 -13.22765625 1.69769531 -12.5078125 1.50976562 C-3.58610314 -0.84934022 -3.58610314 -0.84934022 0 0 Z " fill="#064134" transform="translate(180,274)"/>
<path d="M0 0 C1.60294922 0.04060547 1.60294922 0.04060547 3.23828125 0.08203125 C4.04652344 0.11683594 4.85476562 0.15164062 5.6875 0.1875 C5.6875 0.5175 5.6875 0.8475 5.6875 1.1875 C4.84445313 1.32027344 4.00140625 1.45304688 3.1328125 1.58984375 C2.03710938 1.76644531 0.94140625 1.94304687 -0.1875 2.125 C-1.27804688 2.29902344 -2.36859375 2.47304687 -3.4921875 2.65234375 C-6.25071546 3.04301159 -6.25071546 3.04301159 -8.3125 4.1875 C-8.3125 4.8475 -8.3125 5.5075 -8.3125 6.1875 C-7.3225 6.8475 -6.3325 7.5075 -5.3125 8.1875 C-7.125 8.8125 -7.125 8.8125 -9.3125 9.1875 C-10.3025 8.5275 -11.2925 7.8675 -12.3125 7.1875 C-12.125 5.375 -12.125 5.375 -11.3125 3.1875 C-7.47872934 0.29828153 -4.74355614 -0.15638097 0 0 Z " fill="#013024" transform="translate(220.3125,223.8125)"/>
<path d="M0 0 C6.68109279 -0.37817506 12.72164492 0.59458452 19 3 C19.33 3.66 19.66 4.32 20 5 C13.04339229 4.42978625 6.68572695 2.98697306 0 1 C0 0.67 0 0.34 0 0 Z " fill="#023B2E" transform="translate(285,232)"/>
<path d="M0 0 C7.31110994 -0.3689719 13.21256822 0.18447274 20 3 C20 3.33 20 3.66 20 4 C13.15182898 3.51358785 6.66957927 2.64006048 0 1 C0 0.67 0 0.34 0 0 Z " fill="#013B2D" transform="translate(264,228)"/>
<path d="M0 0 C0 0.66 0 1.32 0 2 C-4.97600299 6.34796378 -8.94089713 6.5168049 -15.375 6.25 C-16.62216797 6.22292969 -16.62216797 6.22292969 -17.89453125 6.1953125 C-19.93019074 6.14851573 -21.9652509 6.07678298 -24 6 C-24 5.67 -24 5.34 -24 5 C-22.91460937 4.97421875 -21.82921875 4.9484375 -20.7109375 4.921875 C-19.26558651 4.86556262 -17.82027556 4.808216 -16.375 4.75 C-15.66214844 4.73582031 -14.94929688 4.72164062 -14.21484375 4.70703125 C-8.71942178 4.45494767 -4.73579224 0 0 0 Z " fill="#01281D" transform="translate(82,198)"/>
<path d="M0 0 C0.99 0 1.98 0 3 0 C3 1.98 3 3.96 3 6 C2.34 5.01 1.68 4.02 1 3 C-1.64 5.31 -4.28 7.62 -7 10 C-7.66 9.34 -8.32 8.68 -9 8 C-7.8803014 6.99406757 -6.7540588 5.9954151 -5.625 5 C-4.68527344 4.1646875 -4.68527344 4.1646875 -3.7265625 3.3125 C-2 2 -2 2 0 2 C0 1.34 0 0.68 0 0 Z " fill="#024134" transform="translate(90,189)"/>
<path d="M0 0 C4.18423892 3.50897269 8.19588166 7.08060535 12 11 C8.42185133 10.40364189 6.45577139 9.000066 3.75 6.625 C3.04359375 6.01914063 2.3371875 5.41328125 1.609375 4.7890625 C0 3 0 3 0 0 Z " fill="#023D33" transform="translate(354,171)"/>
<path d="M0 0 C2 0 2 0 4.25 2.1875 C5.61125 3.5796875 5.61125 3.5796875 7 5 C8.96647738 6.71199207 10.97740933 8.35370527 13 10 C12.01 10.33 11.02 10.66 10 11 C8.32742645 9.5484451 6.66208242 8.08855591 5 6.625 C3.6078125 5.40683594 3.6078125 5.40683594 2.1875 4.1640625 C1.465625 3.44992188 0.74375 2.73578125 0 2 C0 1.34 0 0.68 0 0 Z " fill="#013125" transform="translate(215,92)"/>
<path d="M0 0 C0.66 0.33 1.32 0.66 2 1 C0.90220176 2.15193623 -0.20349446 3.29634937 -1.3125 4.4375 C-1.92738281 5.07558594 -2.54226562 5.71367187 -3.17578125 6.37109375 C-5 8 -5 8 -8 9 C-6.4169423 4.7257442 -3.49431596 2.73468206 0 0 Z " fill="#013025" transform="translate(88,154)"/>
<path d="M0 0 C5.445 1.485 5.445 1.485 11 3 C10.67 3.66 10.34 4.32 10 5 C3.9453125 4.609375 3.9453125 4.609375 2 4 C1.34 2.68 0.68 1.36 0 0 Z " fill="#012D24" transform="translate(41,201)"/>
<path d="M0 0 C0.66 0.33 1.32 0.66 2 1 C2.125 3.375 2.125 3.375 2 6 C1.34 6.66 0.68 7.32 0 8 C-1.32 8 -2.64 8 -4 8 C-4 7.34 -4 6.68 -4 6 C-3.01 5.67 -2.02 5.34 -1 5 C-0.67 3.35 -0.34 1.7 0 0 Z " fill="#052920" transform="translate(380,196)"/>
<path d="M0 0 C2.64 1.98 5.28 3.96 8 6 C7.01 6.33 6.02 6.66 5 7 C2.3125 5.25 2.3125 5.25 0 3 C0 2.01 0 1.02 0 0 Z " fill="#004235" transform="translate(317,139)"/>
<path d="M0 0 C3.4375 0.8125 3.4375 0.8125 7 2 C7.33 2.99 7.66 3.98 8 5 C4.7 4.01 1.4 3.02 -2 2 C-1.34 1.34 -0.68 0.68 0 0 Z " fill="#044034" transform="translate(269,246)"/>
<path d="M0 0 C3.68754757 0.49831724 5.60490662 1.10067643 8 4 C7.67 4.99 7.34 5.98 7 7 C5.83040013 6.02433888 4.66438823 5.044375 3.5 4.0625 C2.8503125 3.51722656 2.200625 2.97195312 1.53125 2.41015625 C1.0259375 1.94480469 0.520625 1.47945312 0 1 C0 0.67 0 0.34 0 0 Z " fill="#003E2E" transform="translate(282,151)"/>
<path d="M0 0 C0.66 0 1.32 0 2 0 C1.67 0.99 1.34 1.98 1 3 C0.67 2.01 0.34 1.02 0 0 Z " fill="#002020" transform="translate(273,194)"/>
<path d="M0 0 C2 1 2 1 2 1 Z " fill="#004040" transform="translate(96,292)"/>
<path d="M0 0 C2 1 2 1 2 1 Z " fill="#008080" transform="translate(150,284)"/>
<path d="M0 0 C2 1 2 1 2 1 Z " fill="#000000" transform="translate(152,283)"/>
<path d="" fill="#004040" transform="translate(0,0)"/>
<path d="M0 0 C2 1 2 1 2 1 Z " fill="#004040" transform="translate(172,205)"/>
<path d="M0 0 C2 1 2 1 2 1 Z " fill="#006A6A" transform="translate(266,195)"/>
<path d="M0 0 C2 1 2 1 2 1 Z " fill="#004040" transform="translate(220,193)"/>
<path d="M0 0 C2 1 2 1 2 1 Z " fill="#006060" transform="translate(251,189)"/>
<path d="M0 0 C2 1 2 1 2 1 Z " fill="#000000" transform="translate(299,168)"/>
<path d="M0 0 C2 1 2 1 2 1 Z " fill="#000000" transform="translate(288,109)"/>
<path d="" fill="#FFFFFF" transform="translate(0,0)"/>
<path d="" fill="#FFFFFF" transform="translate(0,0)"/>
<path d="" fill="#00FFFF" transform="translate(0,0)"/>
<path d="" fill="#00FF00" transform="translate(0,0)"/>
<path d="" fill="#000000" transform="translate(0,0)"/>
<path d="" fill="#000000" transform="translate(0,0)"/>
<path d="" fill="#000000" transform="translate(0,0)"/>
<path d="" fill="#000000" transform="translate(0,0)"/>
<path d="" fill="#000000" transform="translate(0,0)"/>
<path d="" fill="#000000" transform="translate(0,0)"/>
<path d="" fill="#000000" transform="translate(0,0)"/>
<path d="" fill="#000000" transform="translate(0,0)"/>
<path d="" fill="#000000" transform="translate(0,0)"/>
<path d="" fill="#008080" transform="translate(0,0)"/>
<path d="" fill="#000000" transform="translate(0,0)"/>
<path d="" fill="#000000" transform="translate(0,0)"/>
<path d="" fill="#008080" transform="translate(0,0)"/>
<path d="" fill="#000000" transform="translate(0,0)"/>
<path d="" fill="#000000" transform="translate(0,0)"/>
<path d="" fill="#000000" transform="translate(0,0)"/>
<path d="" fill="#008080" transform="translate(0,0)"/>
<path d="" fill="#008080" transform="translate(0,0)"/>
<path d="" fill="#000000" transform="translate(0,0)"/>
<path d="" fill="#000000" transform="translate(0,0)"/>
<path d="" fill="#000000" transform="translate(0,0)"/>
<path d="" fill="#000000" transform="translate(0,0)"/>
<path d="" fill="#000000" transform="translate(0,0)"/>
<path d="" fill="#000000" transform="translate(0,0)"/>
<path d="" fill="#000000" transform="translate(0,0)"/>
<path d="" fill="#000000" transform="translate(0,0)"/>
<path d="" fill="#000000" transform="translate(0,0)"/>
<path d="" fill="#000000" transform="translate(0,0)"/>
<path d="" fill="#006666" transform="translate(0,0)"/>
<path d="" fill="#000000" transform="translate(0,0)"/>
<path d="" fill="#000000" transform="translate(0,0)"/>
<path d="" fill="#000000" transform="translate(0,0)"/>
<path d="" fill="#008080" transform="translate(0,0)"/>
<path d="" fill="#000000" transform="translate(0,0)"/>
<path d="" fill="#000000" transform="translate(0,0)"/>
<path d="" fill="#008080" transform="translate(0,0)"/>
<path d="" fill="#000000" transform="translate(0,0)"/>
<path d="" fill="#000000" transform="translate(0,0)"/>
<path d="" fill="#000000" transform="translate(0,0)"/>
<path d="" fill="#005555" transform="translate(0,0)"/>
<path d="" fill="#000000" transform="translate(0,0)"/>
<path d="" fill="#000000" transform="translate(0,0)"/>
<path d="" fill="#000000" transform="translate(0,0)"/>
<path d="" fill="#000000" transform="translate(0,0)"/>
<path d="" fill="#000000" transform="translate(0,0)"/>
<path d="" fill="#000000" transform="translate(0,0)"/>
<path d="" fill="#000000" transform="translate(0,0)"/>
<path d="" fill="#008080" transform="translate(0,0)"/>
<path d="" fill="#000000" transform="translate(0,0)"/>
<path d="" fill="#000000" transform="translate(0,0)"/>
<path d="" fill="#000000" transform="translate(0,0)"/>
<path d="" fill="#008080" transform="translate(0,0)"/>
<path d="" fill="#000000" transform="translate(0,0)"/>
<path d="" fill="#000000" transform="translate(0,0)"/>
<path d="" fill="#000000" transform="translate(0,0)"/>
<path d="" fill="#008080" transform="translate(0,0)"/>
<path d="" fill="#008080" transform="translate(0,0)"/>
<path d="" fill="#000000" transform="translate(0,0)"/>
<path d="" fill="#000000" transform="translate(0,0)"/>
<path d="" fill="#000000" transform="translate(0,0)"/>
<path d="" fill="#000000" transform="translate(0,0)"/>
<path d="" fill="#000000" transform="translate(0,0)"/>
<path d="" fill="#000000" transform="translate(0,0)"/>
<path d="" fill="#000000" transform="translate(0,0)"/>
<path d="" fill="#005555" transform="translate(0,0)"/>
<path d="" fill="#008080" transform="translate(0,0)"/>
<path d="" fill="#005555" transform="translate(0,0)"/>
<path d="" fill="#000000" transform="translate(0,0)"/>
<path d="" fill="#000000" transform="translate(0,0)"/>
<path d="" fill="#000000" transform="translate(0,0)"/>
<path d="" fill="#000000" transform="translate(0,0)"/>
<path d="" fill="#000000" transform="translate(0,0)"/>
<path d="" fill="#008080" transform="translate(0,0)"/>
<path d="" fill="#000000" transform="translate(0,0)"/>
<path d="" fill="#008080" transform="translate(0,0)"/>
<path d="" fill="#000000" transform="translate(0,0)"/>
<path d="" fill="#000000" transform="translate(0,0)"/>
<path d="" fill="#006633" transform="translate(0,0)"/>
<path d="" fill="#000000" transform="translate(0,0)"/>
<path d="" fill="#000000" transform="translate(0,0)"/>
<path d="" fill="#000000" transform="translate(0,0)"/>
<path d="" fill="#000000" transform="translate(0,0)"/>
<path d="" fill="#000000" transform="translate(0,0)"/>
<path d="" fill="#000000" transform="translate(0,0)"/>
<path d="" fill="#000000" transform="translate(0,0)"/>
<path d="" fill="#008080" transform="translate(0,0)"/>
<path d="" fill="#000000" transform="translate(0,0)"/>
<path d="" fill="#008000" transform="translate(0,0)"/>
<path d="" fill="#000000" transform="translate(0,0)"/>
<path d="" fill="#000000" transform="translate(0,0)"/>
<path d="" fill="#000000" transform="translate(0,0)"/>
<path d="" fill="#000000" transform="translate(0,0)"/>
<path d="" fill="#000000" transform="translate(0,0)"/>
</svg>
